<?xml version="1.0" standalone="no"?>
<!DOCTYPE svg PUBLIC "-//W3C//DTD SVG 20010904//EN"
 "http://www.w3.org/TR/2001/REC-SVG-20010904/DTD/svg10.dtd">
<svg version="1.0" xmlns="http://www.w3.org/2000/svg"
 width="1000.000000pt" height="1000.000000pt" viewBox="0 0 1000.000000 1000.000000"
 preserveAspectRatio="xMidYMid meet">

<g transform="translate(0.000000,1000.000000) scale(0.100000,-0.100000)"
fill="#000000" stroke="none">
<path d="M4670 9904 c-433 -37 -768 -99 -1110 -205 -201 -62 -360 -120 -360
-132 0 -11 112 -300 120 -310 3 -4 53 10 111 31 766 284 1642 352 2454 191
754 -150 1439 -477 2040 -973 154 -127 454 -427 581 -581 565 -683 914 -1487
1023 -2352 112 -884 -38 -1780 -429 -2578 -137 -278 -258 -475 -453 -738 -79
-106 -113 -144 -119 -134 -4 8 -19 47 -34 88 -31 87 -108 244 -170 349 -187
314 -544 662 -924 899 -131 82 -372 206 -535 276 -139 59 -422 154 -588 198
l-128 33 48 34 c78 55 303 287 383 395 427 570 596 1319 469 2068 -42 243
-116 471 -229 702 -365 745 -1030 1195 -1765 1195 -735 0 -1400 -450 -1765
-1195 -114 -233 -188 -462 -229 -707 -126 -755 41 -1491 469 -2063 80 -108
305 -340 383 -395 l48 -34 -128 -33 c-444 -116 -875 -306 -1218 -536 -177
-118 -292 -214 -456 -377 -218 -218 -342 -384 -460 -621 -56 -112 -96 -213
-124 -312 -11 -37 -23 -67 -27 -67 -5 0 -55 59 -113 132 -530 665 -859 1442
-964 2274 -131 1034 97 2085 643 2967 54 87 96 160 94 161 -28 24 -274 186
-282 186 -6 0 -24 -22 -40 -48 -389 -623 -613 -1191 -726 -1837 -79 -454 -92
-1020 -34 -1475 125 -981 534 -1885 1195 -2635 134 -153 399 -409 555 -536
801 -658 1744 -1034 2783 -1110 205 -15 685 -7 871 15 999 117 1869 489 2635
1127 129 108 401 374 519 509 719 819 1134 1807 1217 2900 15 198 6 696 -15
880 -108 919 -426 1718 -971 2438 -144 191 -241 301 -428 490 -740 746 -1667
1225 -2698 1392 -267 43 -386 52 -734 55 -187 1 -360 1 -385 -1z"/>
<path d="M1930 9125 l0 -375 -375 0 -375 0 0 -140 0 -140 375 0 375 0 0 -375
0 -375 140 0 140 0 0 375 0 375 375 0 375 0 0 140 0 140 -375 0 -375 0 0 375
0 375 -140 0 -140 0 0 -375z"/>
</g>
</svg>
